<svg width="200" height="39" viewBox="0 0 200 39" fill="none" xmlns="http://www.w3.org/2000/svg">
<g clip-path="url(#clip0_54764_23)">
<path d="M198.355 20.8301C198.357 20.8255 198.359 20.8211 198.362 20.8165C200.416 16.7802 200.542 12.85 198.716 9.74997C197.09 6.98822 194.107 5.2133 190.228 4.665C187.805 1.64581 184.745 0 181.493 0C178.674 0 176 1.23647 173.759 3.53149C170.529 3.7838 167.862 5.03391 166.08 7.17577C163.773 9.94982 163.257 13.8492 164.626 18.1555C164.628 18.1604 164.63 18.1652 164.631 18.17C164.629 18.1745 164.626 18.179 164.624 18.1835C162.57 22.2198 162.444 26.15 164.269 29.25C165.896 32.0119 168.879 33.7867 172.757 34.3351C175.181 37.3542 178.24 39 181.493 39C184.313 39 186.987 37.763 189.228 35.4669C192.457 35.2143 195.124 33.9656 196.905 31.8242C199.213 29.0502 199.729 25.1508 198.359 20.8445C198.358 20.8397 198.356 20.8348 198.355 20.8301ZM197.317 10.5421C198.66 12.822 198.728 15.6853 197.54 18.7216C197.07 17.6843 196.503 16.6608 195.847 15.6628L195.258 17.7729C195.807 18.7402 196.259 19.7146 196.61 20.6806C196.057 21.6735 195.392 22.6406 194.627 23.5696C194.819 22.2457 194.92 20.8844 194.92 19.5001C194.92 15.827 194.226 12.06 192.682 8.68666C192.345 7.94901 191.965 7.22954 191.541 6.53619C194.16 7.20819 196.164 8.58354 197.317 10.5421ZM169.681 19.5001C169.681 17.2965 169.946 15.185 170.428 13.2334C171.929 11.8303 173.667 10.5571 175.587 9.47037C177.846 8.19171 180.207 7.25692 182.544 6.69343C184.723 7.60269 186.906 8.88402 188.958 10.5252C190.404 11.6809 191.684 12.935 192.785 14.2424C193.123 15.9057 193.305 17.6712 193.305 19.5001C193.305 21.7036 193.04 23.8151 192.558 25.7666C191.057 27.1697 189.319 28.4429 187.399 29.5296C185.141 30.8078 182.781 31.7447 180.444 32.3083C178.265 31.399 176.081 30.1166 174.028 28.4748H174.028C172.582 27.3191 171.302 26.065 170.201 24.7576C169.863 23.0944 169.681 21.3289 169.681 19.5001ZM187.931 4.48646C186.867 4.46845 185.779 4.53533 184.679 4.68223L186.019 6.13163C186.544 6.08993 187.065 6.06736 187.579 6.06736C187.945 6.06736 188.308 6.07791 188.666 6.09928C188.903 6.11342 189.135 6.13255 189.365 6.15575C190.368 7.51845 191.217 9.13627 191.868 10.9421C191.268 10.3739 190.638 9.82444 189.979 9.29738C189.227 8.69563 188.445 8.12922 187.636 7.60231C186.834 7.07977 186.002 6.61209 185.161 6.15338C184.553 5.82191 183.91 5.534 183.268 5.27307C183.039 5.17997 182.847 5.10114 182.68 5.03426C180.708 4.261 178.71 3.7627 176.758 3.57094C176.554 3.55104 176.353 3.53571 176.153 3.52256C177.757 2.28363 179.572 1.58421 181.493 1.58421C183.866 1.58421 186.077 2.65211 187.931 4.48646ZM167.333 8.17701C168.546 6.7179 170.246 5.78185 172.239 5.34551C172.123 5.50563 172.008 5.66786 171.896 5.83459C170.941 7.2501 170.154 8.845 169.545 10.5649L171.54 9.86213C172.326 8.00156 173.332 6.37551 174.503 5.06788C174.674 5.06176 174.846 5.0574 175.02 5.0574C176.584 5.0574 178.252 5.30387 179.957 5.78692C178.205 6.37101 176.463 7.14511 174.779 8.09853C173.64 8.7431 172.556 9.46669 171.507 10.2421C170.747 10.8031 169.987 11.3911 169.32 12.0583C169.196 12.1778 169.084 12.286 168.983 12.3841C168.98 12.3922 168.978 12.4003 168.976 12.4084C167.741 13.6051 166.663 14.888 165.771 16.2282C165.118 13.1516 165.578 10.2866 167.333 8.17701ZM165.669 28.4579C164.326 26.1781 164.258 23.3148 165.446 20.2784C165.973 21.4424 166.623 22.5889 167.384 23.7015L167.898 21.52C167.272 20.4568 166.762 19.3831 166.376 18.3194C166.929 17.3265 167.594 16.3594 168.359 15.4304C168.167 16.7544 168.066 18.1158 168.066 19.5001C168.066 20.4587 168.111 21.4272 168.202 22.3817C168.533 25.8736 169.591 29.4348 171.445 32.4638C168.826 31.7918 166.822 30.4165 165.669 28.4579ZM175.053 34.5117C175.169 34.5136 175.285 34.5167 175.401 34.5167C176.408 34.5167 177.436 34.4408 178.474 34.2947L177.112 32.8581C176.164 32.9401 175.23 32.9552 174.319 32.9007C174.083 32.8867 173.85 32.8675 173.621 32.8443C172.618 31.4816 171.768 29.8637 171.118 28.0578C171.718 28.626 172.348 29.1756 173.007 29.7026H173.007C174.512 30.9066 176.103 31.9429 177.736 32.7937C177.734 32.794 177.731 32.7943 177.728 32.7946C178.4 33.1385 179.234 33.5389 180.035 33.8527C180.316 33.9629 180.541 34.0521 180.725 34.126C182.56 34.8081 184.414 35.2509 186.228 35.4291C186.432 35.449 186.633 35.4643 186.833 35.4774C185.228 36.7164 183.414 37.4158 181.493 37.4158C179.119 37.4158 176.907 36.3471 175.053 34.5117ZM195.653 30.823C194.439 32.2822 192.74 33.2191 190.746 33.6555C190.862 33.4951 190.977 33.3325 191.09 33.1654C192.013 31.7966 192.782 30.2611 193.382 28.606L191.386 29.2764C190.609 31.0792 189.624 32.6575 188.483 33.9326C186.771 33.9934 184.92 33.7497 183.024 33.212C184.778 32.6277 186.521 31.8558 188.207 30.9015C189.429 30.2096 190.582 29.4445 191.656 28.62C191.654 28.6239 191.653 28.6278 191.651 28.6317C192.225 28.1818 192.895 27.6281 193.481 27.0693C193.96 26.6119 194.242 26.3486 194.407 26.1977C195.478 25.1148 196.42 23.9661 197.215 22.7719C197.868 25.8484 197.408 28.7135 195.653 30.823ZM182.162 12.3447L182.419 17.6868C182.434 18.0011 182.697 18.2495 183.017 18.2537L186.893 18.3037C187.371 18.3098 187.654 18.831 187.393 19.2238L182.247 26.953C181.917 27.4484 181.132 27.2194 181.132 26.6278V21.3471C181.132 21.0185 180.86 20.7522 180.525 20.7522H176.396C175.916 20.7522 175.626 20.2342 175.883 19.8381C177.037 18.0639 179.597 14.1431 181.054 12.0379C181.382 11.5648 182.135 11.7734 182.162 12.3447Z" fill="url(#paint0_linear_54764_23)"/>
<path d="M4.50132 24.8367V11.1736H0V28.5311H12.0129V24.8367H4.50132ZM18.6642 28.5311V11.1736H14.1628V28.5311H18.6642ZM33.9654 19.7042V24.1927C32.9036 24.7123 31.7389 25.0343 30.8282 25.0343C27.8945 25.0343 25.6438 22.8039 25.6438 19.8523C25.6438 16.9522 27.8703 14.7197 30.7778 14.7197C32.422 14.7197 34.2173 15.4389 35.5089 16.6045L38.0376 13.6035C36.2161 12.0171 33.4335 11.0254 30.804 11.0254C25.2147 11.0254 21.0418 14.8185 21.0418 19.8523C21.0418 24.9118 25.1139 28.7306 30.4998 28.7306C32.9781 28.7306 35.9622 27.7883 37.8603 26.4725V19.7042H33.9654ZM57.3344 28.5311V11.1736H52.8331V18.3153H45.4988V11.1736H40.9955V28.5311H45.4988V21.7864H52.8331V28.5311H57.3344ZM74.4048 14.7197V11.1479H59.2808V14.7197H64.568V28.5311H69.0693V14.7197H74.4048ZM83.7117 11.0254C78.3258 11.0254 74.2537 14.7928 74.2537 19.8029C74.2537 24.8861 78.2251 28.7306 83.5606 28.7306C86.1658 28.7306 88.9726 27.4663 90.8707 25.5559L88.2392 22.8276C87 24.0682 85.2813 24.8624 83.7882 24.8624C80.9815 24.8624 78.8557 22.6537 78.8557 19.7535C78.8557 16.9008 80.9815 14.7197 83.7882 14.7197C85.3558 14.7197 87.0766 15.587 88.2392 16.9759L90.8445 13.9512C89.0734 12.1653 86.3431 11.0254 83.7117 11.0254ZM109.257 28.5311V11.1736H104.755V18.3153H97.4212V11.1736H92.9178V28.5311H97.4212V21.7864H104.755V28.5311H109.257ZM124.558 25.3326L125.821 28.5311H130.627L123.166 11.1736H118.537L110.901 28.5311H115.529L116.819 25.3326H124.558ZM123.242 21.986H118.134L120.714 15.5633L123.242 21.986ZM136.772 28.5311V11.1736H132.271V28.5311H136.772ZM156.652 28.5311V11.1736H152.453V21.8852L144.284 11.1736H140.315V28.5311H144.538V17.8432L152.68 28.5311H156.652Z" fill="#F3F3F3"/>
</g>
<defs>
<linearGradient id="paint0_linear_54764_23" x1="162.986" y1="19.5" x2="200.727" y2="19.5" gradientUnits="userSpaceOnUse">
<stop stop-color="#3005FA"/>
<stop offset="1" stop-color="#FF12FB"/>
</linearGradient>
<clipPath id="clip0_54764_23">
<rect width="200" height="39" fill="white"/>
</clipPath>
</defs>
</svg>
